<svg width="137" height="62" viewBox="0 0 137 62" fill="none" xmlns="http://www.w3.org/2000/svg">
<path d="M46.0365 0.165386C43.423 0.464855 41.2995 1.47216 38.4409 3.75901C37.1886 4.76631 35.9907 5.58305 35.7729 5.58305C35.174 5.58305 30.9269 7.37986 29.7291 8.14214C28.8307 8.68663 28.2862 8.79553 24.992 8.93165C20.1189 9.12222 18.8121 9.66671 15.4635 12.852C13.3672 14.8666 13.0133 15.1116 12.0604 15.1116C10.427 15.1116 7.3506 15.8467 5.82603 16.6089C4.21979 17.3984 2.2324 19.3858 1.36122 21.101C0.217795 23.3606 0 25.2935 0 34.332C0 38.9874 0.136122 43.4522 0.272244 44.2417C0.898406 47.5903 3.04914 50.5578 5.93493 52.0551C8.08565 53.1986 8.57569 53.2802 12.9861 53.253C16.743 53.2258 16.9064 53.253 19.4927 54.2059C21.2623 54.832 22.8413 55.2132 24.257 55.3221C26.2716 55.4854 26.4894 55.5671 28.2317 56.8466C30.7636 58.6979 31.3081 58.8885 35.1467 59.1879C36.998 59.3513 40.6733 59.7869 43.2868 60.1408C49.984 61.0664 51.6175 61.1753 53.6593 60.8759C58.5053 60.1952 62.3167 56.2749 62.8068 51.4562C62.9973 49.6322 62.4256 47.6176 60.1388 41.7371C57.5524 35.0671 57.0624 33.0797 57.2257 29.8128C57.3891 26.7909 57.8247 25.5113 60.0299 21.6455C62.6706 16.9629 63.324 14.1043 62.5073 10.674C61.8539 7.84267 60.8194 5.90974 58.9409 4.05848C55.7012 0.791548 51.4269 -0.488 46.0365 0.165386ZM51.6992 4.76631C53.5777 5.58305 55.8101 7.9788 56.6268 10.0751C59.3493 17.1807 52.652 24.7218 45.8732 22.1627C43.668 21.346 41.4084 19.1136 40.6188 16.9356C39.0671 12.8247 40.4283 8.11492 43.7769 5.80084C46.5538 3.89513 48.9223 3.56844 51.6992 4.76631ZM36.5352 12.5797C36.4535 14.7849 36.5352 15.5472 37.0252 16.9901C38.0325 19.9848 39.6932 21.9177 42.6335 23.5784L44.1036 24.4224V33.1069V41.7915H38.6587H33.2138L33.1594 32.0452L33.0777 22.3261L31.2536 22.2444L29.4024 22.1627V33.0525V43.9423L28.5856 45.2218C27.7961 46.4741 27.3061 47.7809 26.6799 50.1494C26.5166 50.8028 26.2443 51.3201 26.081 51.3201C25.4821 51.3201 22.1607 48.8427 21.5345 47.9443C20.1189 45.7935 20.0644 45.3307 19.9011 34.8493L19.7377 25.0485L18.6487 25.103C18.0498 25.1574 17.2875 25.2391 16.9336 25.3208L16.3074 25.4841L16.4163 35.6116C16.4708 41.1926 16.6069 46.0113 16.7158 46.3108C16.9064 46.8008 16.6613 47.0458 15.2457 47.9987C14.32 48.6249 13.1494 49.1966 12.6049 49.3055C10.0458 49.7955 6.31607 46.9914 5.85325 44.2417C5.77158 43.7245 5.68991 39.1235 5.66268 34.0326C5.60823 25.103 5.60823 24.7218 6.17994 23.5239C6.94223 21.836 8.68459 20.1209 9.99136 19.767C10.5631 19.6309 12.006 19.4131 13.2038 19.3314C16.4436 19.0864 16.8247 18.8686 19.2749 16.3367C22.2696 13.1514 23.0591 12.8247 27.0611 13.0698L30.083 13.2331L31.9887 12.2803C33.0505 11.763 34.3845 11.0279 34.9834 10.6468C35.5823 10.2656 36.2085 9.93896 36.3446 9.93896C36.5352 9.93896 36.5896 10.8646 36.5352 12.5797ZM51.8081 44.0784C53.8499 44.5684 55.4017 45.6574 56.3818 47.3725C57.3891 49.1421 57.5797 50.1767 57.1713 51.8646C56.7357 53.6342 55.5923 55.186 54.0405 56.1116C52.5159 57.01 51.0458 57.01 45.3559 56.2205C43.2596 55.921 40.1016 55.5399 38.3864 55.4037C34.4117 55.0498 32.9688 54.587 31.7437 53.2258C30.6003 51.9462 30.3825 51.2384 30.5458 49.251C30.6819 47.5631 31.5531 46.2836 33.4044 44.9768C34.7928 43.9695 36.5624 43.7789 44.3758 43.7517C48.4595 43.7245 50.6919 43.8061 51.8081 44.0784Z" fill="#111111"/>
<path d="M77.9435 10.6196C76.065 11.1913 74.4044 12.3347 73.506 13.6143C71.7364 16.1734 71.7636 15.9828 71.6547 29.105C71.5458 42.5811 71.6819 44.024 73.0431 46.0658C74.1049 47.6448 75.8745 49.006 77.399 49.4688C78.0252 49.6594 79.9037 49.8228 81.5372 49.8228C84.4229 49.8228 84.6135 49.7955 86.4376 48.8699C90.4395 46.8825 91.1746 44.514 91.2018 34.087V28.4516H86.3014H81.401V31.7185V34.9854H82.8984H84.3957V38.3613V41.7371L83.5518 42.4449C82.8984 42.9894 82.4356 43.1528 81.3466 43.1528C80.2304 43.1528 79.8765 43.0166 79.1959 42.3633L78.4063 41.5738V30.2756V19.0047L79.0325 18.0791C79.577 17.2896 79.822 17.1534 80.911 17.0718C83.1706 16.9356 83.6334 17.5618 83.9874 21.1554L84.1779 23.0067H87.581H91.0113L90.8479 20.3387C90.739 18.8686 90.4668 17.0718 90.249 16.3095C89.405 13.4781 87.4176 11.4635 84.5863 10.6196C82.9256 10.1295 79.4953 10.1295 77.9435 10.6196Z" fill="#111111"/>
<path d="M95.6122 30.1395L95.6939 49.5505L99.0425 49.6322L102.364 49.7138V42.1182V34.5226L105.576 34.3593C107.319 34.2504 109.197 34.0598 109.742 33.8964C111.13 33.5153 112.872 32.263 113.635 31.1468C114.887 29.2955 115.023 28.3971 115.023 22.3261C115.023 16.9356 114.996 16.5273 114.397 15.2477C113.608 13.5326 112.655 12.5253 110.94 11.6269C109.578 10.8918 109.551 10.8918 102.554 10.8101L95.5577 10.7285L95.6122 30.1395ZM107.101 17.3168C107.509 17.5073 107.918 18.0246 108.108 18.5963C108.489 19.7942 108.489 25.593 108.108 26.6275C107.727 27.6348 106.366 28.1793 104.188 28.1793H102.446L102.255 26.083C102.037 23.4695 102.037 21.2099 102.282 18.8413L102.446 17.0173H104.433C105.522 17.0173 106.72 17.1534 107.101 17.3168Z" fill="#111111"/>
<path d="M117.119 13.8048L117.201 16.8812L120.414 16.9629L123.599 17.0445V33.352V49.6866H126.866H130.133V33.352V17.0173H133.4H136.667V13.8865V10.7557H126.866H117.038L117.119 13.8048Z" fill="#111111"/>
</svg>
